<?xml version="1.0" encoding="utf-8"?>
<!-- Generator: Adobe Illustrator 27.2.0, SVG Export Plug-In . SVG Version: 6.00 Build 0)  -->
<svg version="1.1" id="Layer_1" xmlns="http://www.w3.org/2000/svg" xmlns:xlink="http://www.w3.org/1999/xlink" x="0px" y="0px"
	 viewBox="0 0 702 180" style="enable-background:new 0 0 702 180;" xml:space="preserve">
<style type="text/css">
	.st0{fill:#2E2F2F;}
</style>
<g>
	<g>
		<g>
			<path class="st0" d="M283.2,78.9c-2.6-1.4-4.7-3.3-6.1-5.7c-1.4-2.5-2.1-5.3-2.1-8.5V49.2c0-3.2,0.7-6.1,2.1-8.5
				c1.4-2.5,3.5-4.4,6.1-5.7c2.6-1.3,5.7-2,9.2-2c3.4,0,6.5,0.6,9.1,1.9c2.6,1.3,4.6,3.1,6.1,5.4c1.5,2.3,2.2,5.1,2.2,8.1
				c0,0.4-0.3,0.6-0.8,0.7l-7.8,0.5H301c-0.4,0-0.7-0.2-0.7-0.7c0-2.4-0.7-4.3-2.2-5.7c-1.5-1.4-3.4-2.1-5.7-2.1
				c-2.4,0-4.3,0.7-5.8,2.1c-1.5,1.4-2.2,3.3-2.2,5.7V65c0,2.3,0.7,4.2,2.2,5.6c1.5,1.4,3.4,2.1,5.8,2.1c2.4,0,4.3-0.7,5.7-2.1
				c1.5-1.4,2.2-3.3,2.2-5.6c0-0.5,0.3-0.7,0.8-0.7l7.8,0.3c0.2,0,0.4,0.1,0.6,0.2c0.2,0.1,0.2,0.3,0.2,0.5c0,3.1-0.7,5.8-2.2,8.2
				c-1.5,2.4-3.5,4.2-6.1,5.5c-2.6,1.3-5.6,1.9-9.1,1.9C288.9,80.9,285.9,80.2,283.2,78.9z"/>
			<path class="st0" d="M342.9,79.7l-2-6.6c-0.1-0.2-0.2-0.3-0.3-0.3H324c-0.1,0-0.2,0.1-0.3,0.3l-1.9,6.6c-0.1,0.4-0.4,0.7-0.9,0.7
				h-8.5c-0.3,0-0.5-0.1-0.6-0.2c-0.1-0.2-0.2-0.4-0.1-0.7l14.5-45.3c0.1-0.4,0.4-0.7,0.9-0.7h10.5c0.4,0,0.7,0.2,0.9,0.7l14.5,45.3
				c0,0.1,0.1,0.2,0.1,0.3c0,0.4-0.2,0.6-0.7,0.6h-8.5C343.3,80.4,343,80.2,342.9,79.7z M326.4,65.6h11.8c0.3,0,0.4-0.1,0.3-0.4
				l-6-19.9c0-0.2-0.1-0.3-0.2-0.2c-0.1,0-0.2,0.1-0.2,0.2l-5.9,19.9C326.1,65.4,326.2,65.6,326.4,65.6z"/>
			<path class="st0" d="M360.9,79.2c-2.7-1.1-4.7-2.8-6.2-4.9c-1.5-2.1-2.2-4.6-2.2-7.4v-1.5c0-0.2,0.1-0.4,0.2-0.6
				c0.2-0.2,0.3-0.2,0.6-0.2h7.6c0.2,0,0.4,0.1,0.6,0.2c0.2,0.2,0.2,0.3,0.2,0.6v1c0,1.8,0.8,3.3,2.5,4.5c1.7,1.2,3.9,1.8,6.7,1.8
				c2.4,0,4.1-0.5,5.3-1.5s1.7-2.2,1.7-3.7c0-1.1-0.4-2-1.1-2.7c-0.7-0.7-1.7-1.4-2.9-1.9c-1.2-0.6-3.2-1.3-5.9-2.3
				c-3-1-5.5-2.1-7.6-3.1c-2.1-1.1-3.8-2.5-5.2-4.4c-1.4-1.9-2.1-4.1-2.1-6.9c0-2.7,0.7-5,2.1-7c1.4-2,3.3-3.6,5.8-4.6
				c2.5-1.1,5.3-1.6,8.5-1.6c3.4,0,6.4,0.6,9.1,1.8c2.7,1.2,4.7,2.9,6.2,5.1c1.5,2.2,2.2,4.7,2.2,7.5v1c0,0.2-0.1,0.4-0.2,0.6
				c-0.2,0.2-0.3,0.2-0.6,0.2h-7.7c-0.2,0-0.4-0.1-0.6-0.2c-0.2-0.2-0.2-0.3-0.2-0.6v-0.5c0-1.9-0.8-3.5-2.3-4.8
				c-1.5-1.3-3.7-2-6.3-2c-2.1,0-3.7,0.4-4.9,1.3c-1.2,0.9-1.8,2.1-1.8,3.7c0,1.1,0.3,2.1,1,2.8c0.7,0.8,1.7,1.4,3.1,2
				c1.4,0.6,3.5,1.4,6.3,2.4c3.2,1.2,5.7,2.2,7.5,3.1c1.8,0.9,3.4,2.2,4.9,4c1.5,1.8,2.2,4.1,2.2,6.9c0,4.2-1.5,7.5-4.6,9.9
				c-3.1,2.4-7.3,3.7-12.5,3.7C366.8,80.9,363.6,80.4,360.9,79.2z"/>
			<path class="st0" d="M424.8,41.4c-0.2,0.2-0.3,0.2-0.6,0.2h-22c-0.2,0-0.3,0.1-0.3,0.3v10.4c0,0.2,0.1,0.3,0.3,0.3h14.4
				c0.2,0,0.4,0.1,0.6,0.2c0.2,0.2,0.2,0.3,0.2,0.6V60c0,0.2-0.1,0.4-0.2,0.6c-0.2,0.2-0.3,0.2-0.6,0.2h-14.4
				c-0.2,0-0.3,0.1-0.3,0.3v10.9c0,0.2,0.1,0.3,0.3,0.3h22c0.2,0,0.4,0.1,0.6,0.2c0.2,0.2,0.2,0.3,0.2,0.6v6.5
				c0,0.2-0.1,0.4-0.2,0.6c-0.2,0.2-0.3,0.2-0.6,0.2h-31c-0.2,0-0.4-0.1-0.6-0.2c-0.2-0.2-0.2-0.3-0.2-0.6V34.3
				c0-0.2,0.1-0.4,0.2-0.6c0.2-0.2,0.3-0.2,0.6-0.2h31c0.2,0,0.4,0.1,0.6,0.2c0.2,0.2,0.2,0.3,0.2,0.6v6.5
				C425,41,424.9,41.2,424.8,41.4z"/>
		</g>
	</g>
	<g>
		<g>
			<path class="st0" d="M443.1,31.2c1.2,0.7,2.1,1.6,2.8,2.7c0.7,1.1,1,2.4,1,3.8c0,1.4-0.3,2.6-1,3.8c-0.7,1.2-1.6,2.1-2.8,2.7
				c-1.2,0.7-2.4,1-3.8,1c-1.4,0-2.7-0.3-3.8-1c-1.2-0.7-2.1-1.6-2.8-2.7c-0.7-1.2-1-2.4-1-3.8c0-1.4,0.3-2.6,1-3.8
				c0.7-1.1,1.6-2.1,2.8-2.7c1.2-0.7,2.4-1,3.8-1C440.7,30.2,442,30.5,443.1,31.2z M442.5,43.2c1-0.6,1.8-1.3,2.3-2.3
				c0.6-1,0.9-2,0.9-3.2c0-1.1-0.3-2.2-0.9-3.2c-0.6-1-1.3-1.7-2.3-2.3c-1-0.6-2-0.8-3.2-0.8c-1.2,0-2.2,0.3-3.2,0.8
				c-1,0.6-1.8,1.3-2.3,2.3c-0.6,1-0.9,2-0.9,3.2c0,1.1,0.3,2.2,0.9,3.2c0.6,1,1.3,1.8,2.3,2.3c1,0.6,2,0.9,3.2,0.9
				C440.5,44.1,441.5,43.8,442.5,43.2z M441.4,37.4c-0.2,0.3-0.4,0.5-0.8,0.7c-0.1,0-0.1,0.1-0.1,0.2l1.1,2.5l0,0.2
				c0,0.2-0.1,0.3-0.4,0.3H441c-0.2,0-0.4-0.1-0.4-0.3l-1.1-2.5c0-0.1-0.1-0.1-0.2-0.1h-0.7c-0.1,0-0.2,0.1-0.2,0.2v2.4
				c0,0.3-0.1,0.4-0.4,0.4h-0.3c-0.3,0-0.4-0.1-0.4-0.4v-6.2c0-0.3,0.1-0.4,0.4-0.4h2c0.6,0,1.1,0.2,1.4,0.6
				c0.4,0.4,0.5,0.9,0.5,1.5C441.7,36.7,441.6,37.1,441.4,37.4z M438.4,35.3v1.9c0,0.1,0.1,0.2,0.2,0.2h1c0.3,0,0.6-0.1,0.8-0.3
				s0.3-0.5,0.3-0.8c0-0.3-0.1-0.6-0.3-0.8s-0.4-0.3-0.8-0.3h-1C438.5,35.2,438.4,35.2,438.4,35.3z"/>
		</g>
	</g>
	<g>
		<path class="st0" d="M217.2,115.2c-0.8-0.4-1.4-1-1.9-1.8c-0.4-0.8-0.7-1.6-0.7-2.6v-6.6c0-1,0.2-1.9,0.7-2.6
			c0.4-0.7,1.1-1.3,1.9-1.8c0.8-0.4,1.7-0.6,2.8-0.6c1,0,2,0.2,2.8,0.6c0.8,0.4,1.4,1,1.9,1.7c0.4,0.7,0.7,1.6,0.7,2.6v0
			c0,0.1,0,0.1-0.1,0.2c0,0-0.1,0.1-0.2,0.1l-0.8,0c-0.2,0-0.2-0.1-0.2-0.2v-0.1c0-1.2-0.4-2.1-1.1-2.8c-0.7-0.7-1.7-1.1-2.9-1.1
			c-1.2,0-2.2,0.4-3,1.1c-0.7,0.7-1.1,1.6-1.1,2.8v6.7c0,1.2,0.4,2.1,1.1,2.8c0.7,0.7,1.7,1.1,3,1.1s2.2-0.4,2.9-1.1
			c0.7-0.7,1.1-1.6,1.1-2.8v0c0-0.1,0.1-0.2,0.2-0.2l0.8,0c0.2,0,0.2,0.1,0.2,0.2c0,1-0.2,1.8-0.7,2.6c-0.4,0.8-1.1,1.3-1.9,1.8
			c-0.8,0.4-1.7,0.6-2.8,0.6C218.9,115.8,218,115.6,217.2,115.2z"/>
		<path class="st0" d="M229.8,114.9c-0.8-0.6-1.3-1.3-1.6-2.3c-0.2-0.6-0.3-1.6-0.3-2.9c0-1.3,0.1-2.3,0.3-2.9
			c0.3-1,0.8-1.7,1.6-2.3s1.7-0.8,2.8-0.8c1.1,0,2,0.3,2.8,0.9c0.8,0.6,1.3,1.3,1.6,2.3c0.1,0.4,0.2,0.8,0.2,1.2c0,0.4,0,1,0,1.7
			c0,0.7,0,1.3,0,1.7s-0.1,0.8-0.2,1.2c-0.3,1-0.8,1.7-1.6,2.3c-0.8,0.6-1.7,0.9-2.8,0.9C231.5,115.8,230.5,115.5,229.8,114.9z
			 M234.6,114c0.6-0.5,1-1.1,1.1-1.8c0.1-0.4,0.2-1.2,0.2-2.5c0-1.2,0-2.1-0.1-2.5c-0.2-0.8-0.5-1.4-1.1-1.8
			c-0.6-0.4-1.3-0.7-2.1-0.7c-0.8,0-1.5,0.2-2.1,0.7c-0.6,0.4-0.9,1.1-1.1,1.8c-0.1,0.5-0.2,1.3-0.2,2.5s0.1,2,0.2,2.5
			c0.2,0.8,0.5,1.4,1.1,1.8c0.6,0.4,1.3,0.7,2.1,0.7C233.4,114.7,234.1,114.5,234.6,114z"/>
		<path class="st0" d="M254.5,104.8c0.7,0.7,1,1.6,1,2.8v7.8c0,0.2-0.1,0.2-0.2,0.2h-0.7c-0.2,0-0.2-0.1-0.2-0.2v-7.6
			c0-0.9-0.3-1.6-0.8-2.2c-0.5-0.5-1.2-0.8-2.1-0.8c-0.9,0-1.6,0.3-2.2,0.8c-0.5,0.5-0.8,1.2-0.8,2.1v7.6c0,0.2-0.1,0.2-0.2,0.2
			h-0.7c-0.2,0-0.2-0.1-0.2-0.2v-7.6c0-0.9-0.3-1.6-0.8-2.2s-1.2-0.8-2.1-0.8c-0.9,0-1.6,0.3-2.2,0.8c-0.5,0.5-0.8,1.2-0.8,2.1v7.6
			c0,0.2-0.1,0.2-0.2,0.2h-0.8c-0.2,0-0.2-0.1-0.2-0.2v-11.2c0-0.2,0.1-0.2,0.2-0.2h0.8c0.2,0,0.2,0.1,0.2,0.2v1c0,0,0,0.1,0,0.1
			c0,0,0.1,0,0.1,0c0.3-0.5,0.8-0.9,1.3-1.1c0.5-0.2,1.2-0.4,1.9-0.4c0.8,0,1.5,0.2,2.1,0.5s1,0.8,1.3,1.5c0,0.1,0.1,0.1,0.1,0
			c0.3-0.7,0.8-1.2,1.4-1.5c0.6-0.3,1.3-0.5,2.2-0.5C253,103.7,253.9,104.1,254.5,104.8z"/>
		<path class="st0" d="M267.8,108c0,0.4,0,1,0,1.7s0,1.3,0,1.7c0,0.4-0.1,0.8-0.2,1.2c-0.2,1-0.7,1.7-1.4,2.3
			c-0.7,0.6-1.6,0.8-2.7,0.8c-0.7,0-1.3-0.1-1.8-0.4c-0.5-0.3-1-0.7-1.3-1.2c0,0-0.1,0-0.1,0c0,0,0,0,0,0.1v5.7
			c0,0.2-0.1,0.2-0.2,0.2h-0.8c-0.2,0-0.2-0.1-0.2-0.2v-15.8c0-0.2,0.1-0.2,0.2-0.2h0.8c0.2,0,0.2,0.1,0.2,0.2v1.1c0,0,0,0.1,0,0.1
			c0,0,0.1,0,0.1,0c0.3-0.5,0.8-0.9,1.3-1.2s1.1-0.4,1.8-0.4c1.1,0,1.9,0.3,2.7,0.8s1.2,1.3,1.5,2.2
			C267.7,107.2,267.8,107.6,267.8,108z M266.3,112.5c0.1-0.3,0.2-0.6,0.3-1c0-0.4,0.1-1,0.1-1.7c0-0.8,0-1.4-0.1-1.8s-0.1-0.7-0.2-1
			c-0.2-0.6-0.5-1.2-1-1.6c-0.5-0.4-1.2-0.6-1.9-0.6c-0.7,0-1.3,0.2-1.8,0.6c-0.5,0.4-0.8,0.9-1,1.6c-0.1,0.3-0.2,0.6-0.2,1
			c0,0.4-0.1,1-0.1,1.8s0,1.4,0.1,1.8s0.1,0.7,0.2,1c0.2,0.6,0.5,1.1,1,1.5c0.5,0.4,1.1,0.6,1.8,0.6c0.7,0,1.3-0.2,1.8-0.5
			c0.5-0.4,0.9-0.8,1-1.4L266.3,112.5z"/>
		<path class="st0" d="M277,114.2c0.5-0.3,0.9-0.8,1.2-1.4c0.1-0.1,0.2-0.2,0.3-0.1l0.6,0.3c0.1,0.1,0.2,0.2,0.1,0.3
			c-0.3,0.8-0.9,1.4-1.6,1.8c-0.7,0.4-1.6,0.7-2.6,0.7c-1.1,0-2-0.3-2.8-0.8s-1.3-1.2-1.6-2.2c-0.1-0.4-0.2-0.8-0.3-1.3
			c0-0.5-0.1-1.1-0.1-1.8c0-0.8,0-1.3,0-1.7c0-0.4,0.1-0.7,0.2-1.1c0.2-1,0.8-1.8,1.5-2.3c0.8-0.6,1.7-0.9,2.8-0.9
			c1.3,0,2.3,0.3,3,1c0.8,0.7,1.2,1.6,1.4,2.7c0,0.3,0.1,0.6,0.1,1c0,0.4,0,0.9,0,1.5c0,0.2-0.1,0.2-0.2,0.2h-7.6
			c-0.1,0-0.1,0-0.1,0.1c0,1,0,1.6,0.1,2c0.2,0.8,0.6,1.4,1.1,1.8c0.6,0.4,1.3,0.7,2.3,0.7C275.9,114.7,276.5,114.5,277,114.2z
			 M271.6,109C271.6,109.1,271.6,109.1,271.6,109l6.6,0.1c0.1,0,0.1,0,0.1-0.1c0-0.8,0-1.4-0.1-1.7c-0.2-0.7-0.5-1.3-1.1-1.8
			s-1.3-0.7-2.1-0.7c-0.8,0-1.5,0.2-2.1,0.7s-0.9,1-1.1,1.8C271.7,107.5,271.6,108.1,271.6,109z"/>
		<path class="st0" d="M287,104.9h-2.7c-0.1,0-0.1,0-0.1,0.1v7.3c0,0.8,0.2,1.3,0.5,1.7c0.4,0.3,0.9,0.5,1.7,0.5h0.5
			c0.2,0,0.2,0.1,0.2,0.2v0.6c0,0.2-0.1,0.2-0.2,0.2l-0.7,0c-1.1,0-1.9-0.2-2.4-0.6c-0.5-0.4-0.8-1.2-0.8-2.3V105
			c0-0.1,0-0.1-0.1-0.1h-1.4c-0.2,0-0.2-0.1-0.2-0.2v-0.6c0-0.2,0.1-0.2,0.2-0.2h1.4c0.1,0,0.1,0,0.1-0.1v-2.6
			c0-0.2,0.1-0.2,0.2-0.2h0.7c0.2,0,0.2,0.1,0.2,0.2v2.6c0,0.1,0,0.1,0.1,0.1h2.7c0.2,0,0.2,0.1,0.2,0.2v0.6
			C287.2,104.9,287.2,104.9,287,104.9z"/>
		<path class="st0" d="M295.9,114.2c0.5-0.3,0.9-0.8,1.2-1.4c0.1-0.1,0.2-0.2,0.3-0.1l0.6,0.3c0.1,0.1,0.2,0.2,0.1,0.3
			c-0.3,0.8-0.9,1.4-1.6,1.8c-0.7,0.4-1.6,0.7-2.6,0.7c-1.1,0-2-0.3-2.8-0.8s-1.3-1.2-1.6-2.2c-0.1-0.4-0.2-0.8-0.3-1.3
			c0-0.5-0.1-1.1-0.1-1.8c0-0.8,0-1.3,0-1.7c0-0.4,0.1-0.7,0.2-1.1c0.2-1,0.8-1.8,1.5-2.3c0.8-0.6,1.7-0.9,2.8-0.9
			c1.3,0,2.3,0.3,3,1c0.8,0.7,1.2,1.6,1.4,2.7c0,0.3,0.1,0.6,0.1,1c0,0.4,0,0.9,0,1.5c0,0.2-0.1,0.2-0.2,0.2h-7.6
			c-0.1,0-0.1,0-0.1,0.1c0,1,0,1.6,0.1,2c0.2,0.8,0.6,1.4,1.1,1.8c0.6,0.4,1.3,0.7,2.3,0.7C294.8,114.7,295.4,114.5,295.9,114.2z
			 M290.6,109C290.6,109.1,290.6,109.1,290.6,109l6.6,0.1c0.1,0,0.1,0,0.1-0.1c0-0.8,0-1.4-0.1-1.7c-0.2-0.7-0.5-1.3-1.1-1.8
			s-1.3-0.7-2.1-0.7c-0.8,0-1.5,0.2-2.1,0.7s-0.9,1-1.1,1.8C290.6,107.5,290.6,108.1,290.6,109z"/>
		<path class="st0" d="M308.9,104.8c0.7,0.7,1.1,1.7,1.1,2.9v7.7c0,0.2-0.1,0.2-0.2,0.2H309c-0.2,0-0.2-0.1-0.2-0.2v-7.4
			c0-0.9-0.3-1.7-0.8-2.2c-0.6-0.6-1.3-0.9-2.2-0.9c-0.9,0-1.7,0.3-2.2,0.8s-0.9,1.3-0.9,2.2v7.5c0,0.2-0.1,0.2-0.2,0.2h-0.8
			c-0.2,0-0.2-0.1-0.2-0.2v-11.2c0-0.2,0.1-0.2,0.2-0.2h0.8c0.2,0,0.2,0.1,0.2,0.2v1.1c0,0,0,0.1,0,0.1c0,0,0,0,0.1,0
			c0.3-0.5,0.8-0.9,1.3-1.2c0.6-0.3,1.2-0.4,1.9-0.4C307.2,103.7,308.2,104.1,308.9,104.8z"/>
		<path class="st0" d="M314.6,114.9c-0.8-0.6-1.3-1.3-1.5-2.3c-0.2-0.7-0.3-1.7-0.3-2.9c0-1.1,0.1-2.1,0.3-2.9
			c0.2-0.9,0.8-1.7,1.5-2.3c0.8-0.6,1.7-0.9,2.8-0.9c1.1,0,2,0.3,2.8,0.8c0.8,0.6,1.3,1.3,1.5,2.1c0.1,0.2,0.1,0.4,0.1,0.6v0
			c0,0.1-0.1,0.2-0.2,0.2l-0.7,0.1h0c-0.1,0-0.2-0.1-0.2-0.2l-0.1-0.3c-0.1-0.6-0.5-1.2-1.1-1.6c-0.6-0.4-1.3-0.7-2.1-0.7
			c-0.9,0-1.6,0.2-2.1,0.7c-0.6,0.4-0.9,1-1.1,1.8c-0.1,0.6-0.2,1.4-0.2,2.5c0,1.1,0.1,1.9,0.2,2.5c0.2,0.8,0.5,1.4,1.1,1.8
			c0.6,0.4,1.3,0.7,2.1,0.7c0.8,0,1.5-0.2,2.1-0.7c0.6-0.4,1-1,1.1-1.7l0-0.1c0-0.2,0.1-0.2,0.3-0.2l0.7,0.1c0.2,0,0.2,0.1,0.2,0.3
			l-0.1,0.4c-0.2,0.9-0.7,1.6-1.5,2.1c-0.8,0.5-1.7,0.8-2.8,0.8C316.3,115.8,315.3,115.5,314.6,114.9z"/>
		<path class="st0" d="M324.6,101.2c-0.2-0.2-0.3-0.5-0.3-0.8s0.1-0.6,0.3-0.8c0.2-0.2,0.5-0.3,0.8-0.3s0.6,0.1,0.8,0.3
			c0.2,0.2,0.3,0.5,0.3,0.8s-0.1,0.6-0.3,0.8c-0.2,0.2-0.5,0.3-0.8,0.3S324.8,101.5,324.6,101.2z M324.8,115.3v-11.2
			c0-0.2,0.1-0.2,0.2-0.2h0.8c0.2,0,0.2,0.1,0.2,0.2v11.2c0,0.2-0.1,0.2-0.2,0.2H325C324.9,115.6,324.8,115.5,324.8,115.3z"/>
		<path class="st0" d="M336.1,114.2c0.5-0.3,0.9-0.8,1.2-1.4c0.1-0.1,0.2-0.2,0.3-0.1l0.6,0.3c0.1,0.1,0.2,0.2,0.1,0.3
			c-0.3,0.8-0.9,1.4-1.6,1.8c-0.7,0.4-1.6,0.7-2.6,0.7c-1.1,0-2-0.3-2.8-0.8s-1.3-1.2-1.6-2.2c-0.1-0.4-0.2-0.8-0.3-1.3
			c0-0.5-0.1-1.1-0.1-1.8c0-0.8,0-1.3,0-1.7c0-0.4,0.1-0.7,0.2-1.1c0.2-1,0.8-1.8,1.5-2.3c0.8-0.6,1.7-0.9,2.8-0.9
			c1.3,0,2.3,0.3,3,1c0.8,0.7,1.2,1.6,1.4,2.7c0,0.3,0.1,0.6,0.1,1c0,0.4,0,0.9,0,1.5c0,0.2-0.1,0.2-0.2,0.2h-7.6
			c-0.1,0-0.1,0-0.1,0.1c0,1,0,1.6,0.1,2c0.2,0.8,0.6,1.4,1.1,1.8c0.6,0.4,1.3,0.7,2.3,0.7C334.9,114.7,335.6,114.5,336.1,114.2z
			 M330.7,109C330.7,109.1,330.7,109.1,330.7,109l6.6,0.1c0.1,0,0.1,0,0.1-0.1c0-0.8,0-1.4-0.1-1.7c-0.2-0.7-0.5-1.3-1.1-1.8
			s-1.3-0.7-2.1-0.7c-0.8,0-1.5,0.2-2.1,0.7s-0.9,1-1.1,1.8C330.8,107.5,330.7,108.1,330.7,109z"/>
		<path class="st0" d="M342.8,115.3c-0.6-0.3-1.1-0.6-1.5-1.1c-0.4-0.5-0.5-1-0.5-1.5v-0.3c0-0.2,0.1-0.2,0.2-0.2h0.7
			c0.2,0,0.2,0.1,0.2,0.2v0.3c0,0.6,0.3,1.1,0.9,1.5c0.6,0.4,1.3,0.6,2.2,0.6c0.9,0,1.6-0.2,2.1-0.6c0.5-0.4,0.8-0.9,0.8-1.6
			c0-0.4-0.1-0.8-0.4-1.1s-0.6-0.5-1-0.6c-0.4-0.1-0.9-0.3-1.7-0.6c-0.9-0.3-1.6-0.5-2.1-0.7c-0.5-0.2-1-0.6-1.3-1
			c-0.4-0.4-0.5-1-0.5-1.6c0-0.9,0.4-1.7,1.1-2.3s1.7-0.8,3-0.8c0.8,0,1.5,0.1,2.2,0.4s1.1,0.6,1.5,1.1s0.5,1,0.5,1.6v0.1
			c0,0.2-0.1,0.2-0.2,0.2h-0.7c-0.2,0-0.2-0.1-0.2-0.2v-0.1c0-0.6-0.3-1.1-0.8-1.5c-0.5-0.4-1.3-0.6-2.2-0.6c-0.9,0-1.6,0.2-2.1,0.5
			c-0.5,0.4-0.8,0.9-0.8,1.5c0,0.6,0.2,1,0.7,1.3c0.5,0.3,1.2,0.6,2.3,0.9c0.9,0.3,1.6,0.5,2.1,0.7s1,0.6,1.4,1
			c0.4,0.4,0.6,1,0.6,1.7c0,1-0.4,1.8-1.1,2.4c-0.8,0.6-1.8,0.9-3,0.9C344.1,115.7,343.4,115.6,342.8,115.3z"/>
		<path class="st0" d="M362.8,104.8c0.7,0.7,1.1,1.7,1.1,2.8v7.7c0,0.2-0.1,0.2-0.2,0.2h-0.8c-0.2,0-0.2-0.1-0.2-0.2v-1.1
			c0,0,0-0.1,0-0.1s0,0-0.1,0c-0.4,0.5-0.9,0.9-1.6,1.2s-1.4,0.4-2.1,0.4c-1.1,0-2-0.3-2.7-0.8s-1.1-1.4-1.1-2.5
			c0-1.1,0.4-2,1.3-2.7c0.8-0.7,2-1,3.5-1h2.8c0.1,0,0.1,0,0.1-0.1v-1c0-0.9-0.2-1.6-0.7-2.1c-0.5-0.5-1.2-0.8-2.2-0.8
			c-0.8,0-1.4,0.2-1.9,0.5c-0.5,0.3-0.8,0.8-1,1.3c0,0.2-0.1,0.2-0.3,0.2l-0.8-0.1c-0.2,0-0.2-0.1-0.2-0.2c0.1-0.8,0.6-1.5,1.4-2
			c0.8-0.5,1.7-0.8,2.9-0.8C361.1,103.7,362.1,104.1,362.8,104.8z M361.6,114c0.7-0.5,1.1-1.1,1.1-2v-2.1c0-0.1,0-0.1-0.1-0.1h-2.7
			c-1.1,0-2,0.2-2.7,0.7c-0.7,0.5-1,1.1-1,1.9c0,0.8,0.3,1.3,0.8,1.7c0.5,0.4,1.2,0.6,2,0.6C360,114.7,360.9,114.5,361.6,114z"/>
		<path class="st0" d="M374.5,104.8c0.7,0.7,1.1,1.7,1.1,2.9v7.7c0,0.2-0.1,0.2-0.2,0.2h-0.8c-0.2,0-0.2-0.1-0.2-0.2v-7.4
			c0-0.9-0.3-1.7-0.8-2.2c-0.6-0.6-1.3-0.9-2.2-0.9c-0.9,0-1.7,0.3-2.2,0.8c-0.6,0.6-0.9,1.3-0.9,2.2v7.5c0,0.2-0.1,0.2-0.2,0.2
			h-0.8c-0.2,0-0.2-0.1-0.2-0.2v-11.2c0-0.2,0.1-0.2,0.2-0.2h0.8c0.2,0,0.2,0.1,0.2,0.2v1.1c0,0,0,0.1,0,0.1c0,0,0,0,0.1,0
			c0.3-0.5,0.8-0.9,1.3-1.2s1.2-0.4,1.9-0.4C372.8,103.7,373.8,104.1,374.5,104.8z"/>
		<path class="st0" d="M386.2,99.4h0.8c0.2,0,0.2,0.1,0.2,0.2v15.8c0,0.2-0.1,0.2-0.2,0.2h-0.8c-0.2,0-0.2-0.1-0.2-0.2v-1.1
			c0,0,0-0.1,0-0.1c0,0,0,0-0.1,0c-0.3,0.5-0.8,0.9-1.3,1.2c-0.5,0.3-1.2,0.4-1.8,0.4c-1.1,0-1.9-0.3-2.7-0.8
			c-0.7-0.6-1.2-1.3-1.5-2.2c-0.1-0.4-0.2-0.8-0.2-1.2c0-0.4,0-1,0-1.7c0-0.7,0-1.3,0-1.7c0-0.4,0.1-0.8,0.2-1.2
			c0.2-1,0.7-1.7,1.4-2.3s1.6-0.8,2.7-0.8c0.7,0,1.3,0.1,1.8,0.4c0.5,0.3,1,0.7,1.3,1.2c0,0,0,0.1,0.1,0.1c0,0,0,0,0-0.1v-5.7
			C386,99.4,386.1,99.4,386.2,99.4z M385.9,111.5c0-0.4,0.1-1,0.1-1.7c0-0.8,0-1.4-0.1-1.8c0-0.4-0.1-0.7-0.2-1
			c-0.2-0.6-0.5-1.1-1-1.5c-0.5-0.4-1.1-0.6-1.8-0.6c-0.7,0-1.4,0.2-1.9,0.6c-0.5,0.4-0.9,0.9-1.1,1.5c-0.1,0.3-0.2,0.6-0.3,1
			c-0.1,0.4-0.1,1-0.1,1.8c0,0.8,0,1.4,0.1,1.8c0,0.4,0.1,0.7,0.2,1c0.2,0.6,0.5,1.2,1,1.6s1.2,0.6,1.9,0.6c0.7,0,1.3-0.2,1.8-0.6
			c0.5-0.4,0.8-0.9,1-1.6C385.8,112.2,385.9,111.9,385.9,111.5z"/>
		<path class="st0" d="M404.3,115.4l-1-3.1c0,0,0-0.1-0.1-0.1h-7.2c0,0-0.1,0-0.1,0.1l-1,3.1c0,0.1-0.1,0.2-0.3,0.2h-0.8
			c-0.2,0-0.2-0.1-0.2-0.3l5.1-15.8c0-0.1,0.1-0.2,0.3-0.2h1c0.1,0,0.2,0.1,0.3,0.2l5.2,15.8l0,0.1c0,0.1-0.1,0.2-0.2,0.2h-0.8
			C404.4,115.6,404.3,115.5,404.3,115.4z M396.2,111.2C396.2,111.2,396.3,111.2,396.2,111.2l6.6,0c0,0,0.1,0,0.1,0s0,0,0-0.1
			l-3.3-10.1c0,0,0,0-0.1,0c0,0-0.1,0-0.1,0L396.2,111.2C396.2,111.1,396.2,111.2,396.2,111.2z"/>
		<path class="st0" d="M409,114.9c-0.8-0.6-1.3-1.3-1.5-2.3c-0.2-0.7-0.3-1.7-0.3-2.9c0-1.1,0.1-2.1,0.3-2.9
			c0.2-0.9,0.8-1.7,1.5-2.3c0.8-0.6,1.7-0.9,2.8-0.9c1.1,0,2,0.3,2.8,0.8s1.3,1.3,1.5,2.1c0.1,0.2,0.1,0.4,0.1,0.6v0
			c0,0.1-0.1,0.2-0.2,0.2l-0.7,0.1h0c-0.1,0-0.2-0.1-0.2-0.2l-0.1-0.3c-0.1-0.6-0.5-1.2-1.1-1.6c-0.6-0.4-1.3-0.7-2.1-0.7
			c-0.9,0-1.6,0.2-2.1,0.7s-0.9,1-1.1,1.8c-0.1,0.6-0.2,1.4-0.2,2.5c0,1.1,0.1,1.9,0.2,2.5c0.2,0.8,0.5,1.4,1.1,1.8s1.3,0.7,2.1,0.7
			c0.8,0,1.5-0.2,2.1-0.7c0.6-0.4,1-1,1.1-1.7l0-0.1c0-0.2,0.1-0.2,0.3-0.2l0.7,0.1c0.2,0,0.2,0.1,0.2,0.3l-0.1,0.4
			c-0.2,0.9-0.7,1.6-1.5,2.1c-0.8,0.5-1.7,0.8-2.8,0.8C410.7,115.8,409.8,115.5,409,114.9z"/>
		<path class="st0" d="M425.9,104.8c0.7,0.7,1.1,1.7,1.1,2.8v7.7c0,0.2-0.1,0.2-0.2,0.2H426c-0.2,0-0.2-0.1-0.2-0.2v-1.1
			c0,0,0-0.1,0-0.1c0,0-0.1,0-0.1,0c-0.4,0.5-0.9,0.9-1.6,1.2c-0.6,0.3-1.4,0.4-2.1,0.4c-1.1,0-2-0.3-2.7-0.8
			c-0.7-0.5-1.1-1.4-1.1-2.5c0-1.1,0.4-2,1.3-2.7c0.8-0.7,2-1,3.5-1h2.8c0.1,0,0.1,0,0.1-0.1v-1c0-0.9-0.2-1.6-0.7-2.1
			c-0.5-0.5-1.2-0.8-2.2-0.8c-0.8,0-1.4,0.2-1.9,0.5c-0.5,0.3-0.8,0.8-1,1.3c0,0.2-0.1,0.2-0.3,0.2l-0.8-0.1c-0.2,0-0.2-0.1-0.2-0.2
			c0.1-0.8,0.6-1.5,1.4-2c0.8-0.5,1.7-0.8,2.9-0.8C424.2,103.7,425.2,104.1,425.9,104.8z M424.7,114c0.7-0.5,1.1-1.1,1.1-2v-2.1
			c0-0.1,0-0.1-0.1-0.1H423c-1.1,0-2,0.2-2.7,0.7c-0.7,0.5-1,1.1-1,1.9c0,0.8,0.3,1.3,0.8,1.7c0.5,0.4,1.2,0.6,2,0.6
			C423.1,114.7,424,114.5,424.7,114z"/>
		<path class="st0" d="M437.6,99.4h0.8c0.2,0,0.2,0.1,0.2,0.2v15.8c0,0.2-0.1,0.2-0.2,0.2h-0.8c-0.2,0-0.2-0.1-0.2-0.2v-1.1
			c0,0,0-0.1,0-0.1c0,0,0,0-0.1,0c-0.3,0.5-0.8,0.9-1.3,1.2c-0.5,0.3-1.2,0.4-1.8,0.4c-1.1,0-1.9-0.3-2.7-0.8
			c-0.7-0.6-1.2-1.3-1.5-2.2c-0.1-0.4-0.2-0.8-0.2-1.2c0-0.4,0-1,0-1.7c0-0.7,0-1.3,0-1.7c0-0.4,0.1-0.8,0.2-1.2
			c0.2-1,0.7-1.7,1.4-2.3s1.6-0.8,2.7-0.8c0.7,0,1.3,0.1,1.8,0.4c0.5,0.3,1,0.7,1.3,1.2c0,0,0,0.1,0.1,0.1c0,0,0,0,0-0.1v-5.7
			C437.4,99.4,437.4,99.4,437.6,99.4z M437.3,111.5c0-0.4,0.1-1,0.1-1.7c0-0.8,0-1.4-0.1-1.8c0-0.4-0.1-0.7-0.2-1
			c-0.2-0.6-0.5-1.1-1-1.5c-0.5-0.4-1.1-0.6-1.8-0.6c-0.7,0-1.4,0.2-1.9,0.6c-0.5,0.4-0.9,0.9-1.1,1.5c-0.1,0.3-0.2,0.6-0.3,1
			c-0.1,0.4-0.1,1-0.1,1.8c0,0.8,0,1.4,0.1,1.8c0,0.4,0.1,0.7,0.2,1c0.2,0.6,0.5,1.2,1,1.6s1.2,0.6,1.9,0.6c0.7,0,1.3-0.2,1.8-0.6
			c0.5-0.4,0.8-0.9,1-1.6C437.2,112.2,437.3,111.9,437.3,111.5z"/>
		<path class="st0" d="M448.3,114.2c0.5-0.3,0.9-0.8,1.2-1.4c0.1-0.1,0.2-0.2,0.3-0.1l0.6,0.3c0.1,0.1,0.2,0.2,0.1,0.3
			c-0.3,0.8-0.9,1.4-1.6,1.8s-1.6,0.7-2.6,0.7c-1.1,0-2-0.3-2.8-0.8c-0.8-0.5-1.3-1.2-1.6-2.2c-0.1-0.4-0.2-0.8-0.3-1.3
			c0-0.5-0.1-1.1-0.1-1.8c0-0.8,0-1.3,0-1.7c0-0.4,0.1-0.7,0.2-1.1c0.2-1,0.8-1.8,1.5-2.3c0.8-0.6,1.7-0.9,2.8-0.9
			c1.3,0,2.3,0.3,3,1c0.8,0.7,1.2,1.6,1.4,2.7c0,0.3,0.1,0.6,0.1,1s0,0.9,0,1.5c0,0.2-0.1,0.2-0.2,0.2H443c-0.1,0-0.1,0-0.1,0.1
			c0,1,0,1.6,0.1,2c0.2,0.8,0.6,1.4,1.1,1.8c0.6,0.4,1.3,0.7,2.3,0.7C447.1,114.7,447.8,114.5,448.3,114.2z M442.9,109
			C442.9,109.1,442.9,109.1,442.9,109l6.6,0.1c0.1,0,0.1,0,0.1-0.1c0-0.8,0-1.4-0.1-1.7c-0.2-0.7-0.5-1.3-1.1-1.8
			c-0.6-0.5-1.3-0.7-2.1-0.7s-1.5,0.2-2.1,0.7s-0.9,1-1.1,1.8C443,107.5,442.9,108.1,442.9,109z"/>
		<path class="st0" d="M468.1,104.8c0.7,0.7,1,1.6,1,2.8v7.8c0,0.2-0.1,0.2-0.2,0.2h-0.7c-0.2,0-0.2-0.1-0.2-0.2v-7.6
			c0-0.9-0.3-1.6-0.8-2.2c-0.5-0.5-1.2-0.8-2.1-0.8c-0.9,0-1.6,0.3-2.2,0.8c-0.5,0.5-0.8,1.2-0.8,2.1v7.6c0,0.2-0.1,0.2-0.2,0.2H461
			c-0.2,0-0.2-0.1-0.2-0.2v-7.6c0-0.9-0.3-1.6-0.8-2.2s-1.2-0.8-2.1-0.8c-0.9,0-1.6,0.3-2.2,0.8c-0.5,0.5-0.8,1.2-0.8,2.1v7.6
			c0,0.2-0.1,0.2-0.2,0.2H454c-0.2,0-0.2-0.1-0.2-0.2v-11.2c0-0.2,0.1-0.2,0.2-0.2h0.8c0.2,0,0.2,0.1,0.2,0.2v1c0,0,0,0.1,0,0.1
			c0,0,0.1,0,0.1,0c0.3-0.5,0.8-0.9,1.3-1.1s1.2-0.4,1.9-0.4c0.8,0,1.5,0.2,2.1,0.5c0.6,0.3,1,0.8,1.3,1.5c0,0.1,0.1,0.1,0.1,0
			c0.3-0.7,0.8-1.2,1.4-1.5c0.6-0.3,1.3-0.5,2.2-0.5C466.5,103.7,467.4,104.1,468.1,104.8z"/>
		<path class="st0" d="M472.5,101.2c-0.2-0.2-0.3-0.5-0.3-0.8s0.1-0.6,0.3-0.8c0.2-0.2,0.5-0.3,0.8-0.3s0.6,0.1,0.8,0.3
			c0.2,0.2,0.3,0.5,0.3,0.8s-0.1,0.6-0.3,0.8s-0.5,0.3-0.8,0.3S472.7,101.5,472.5,101.2z M472.6,115.3v-11.2c0-0.2,0.1-0.2,0.2-0.2
			h0.8c0.2,0,0.2,0.1,0.2,0.2v11.2c0,0.2-0.1,0.2-0.2,0.2h-0.8C472.7,115.6,472.6,115.5,472.6,115.3z"/>
		<path class="st0" d="M479.2,114.9c-0.8-0.6-1.3-1.3-1.5-2.3c-0.2-0.7-0.3-1.7-0.3-2.9c0-1.1,0.1-2.1,0.3-2.9
			c0.2-0.9,0.8-1.7,1.5-2.3c0.8-0.6,1.7-0.9,2.8-0.9s2,0.3,2.8,0.8c0.8,0.6,1.3,1.3,1.5,2.1c0.1,0.2,0.1,0.4,0.1,0.6v0
			c0,0.1-0.1,0.2-0.2,0.2l-0.7,0.1h0c-0.1,0-0.2-0.1-0.2-0.2l-0.1-0.3c-0.1-0.6-0.5-1.2-1.1-1.6c-0.6-0.4-1.3-0.7-2.1-0.7
			c-0.9,0-1.6,0.2-2.1,0.7c-0.6,0.4-0.9,1-1.1,1.8c-0.1,0.6-0.2,1.4-0.2,2.5c0,1.1,0.1,1.9,0.2,2.5c0.2,0.8,0.5,1.4,1.1,1.8
			c0.6,0.4,1.3,0.7,2.1,0.7c0.8,0,1.5-0.2,2.1-0.7c0.6-0.4,1-1,1.1-1.7l0-0.1c0-0.2,0.1-0.2,0.3-0.2l0.7,0.1c0.2,0,0.2,0.1,0.2,0.3
			l-0.1,0.4c-0.2,0.9-0.7,1.6-1.5,2.1c-0.8,0.5-1.7,0.8-2.8,0.8S479.9,115.5,479.2,114.9z"/>
		<path class="st0" d="M255.1,141.8c-1-0.8-1.5-1.8-1.5-3.1V138c0-0.2,0.1-0.2,0.2-0.2h0.7c0.2,0,0.2,0.1,0.2,0.2v0.7
			c0,1,0.4,1.7,1.2,2.3c0.8,0.6,1.9,0.9,3.2,0.9c1.3,0,2.3-0.3,2.9-0.8c0.7-0.5,1-1.3,1-2.2c0-0.6-0.2-1.1-0.5-1.5
			c-0.3-0.4-0.8-0.8-1.4-1.2s-1.5-0.8-2.7-1.3c-1.2-0.5-2.1-0.9-2.7-1.3c-0.6-0.3-1.1-0.8-1.5-1.3c-0.4-0.5-0.6-1.2-0.6-2
			c0-1.3,0.4-2.2,1.3-2.9c0.9-0.7,2.1-1,3.6-1c1.7,0,3,0.4,4,1.2c1,0.8,1.4,1.8,1.4,3.1v0.5c0,0.2-0.1,0.2-0.2,0.2h-0.8
			c-0.2,0-0.2-0.1-0.2-0.2v-0.5c0-1-0.4-1.8-1.1-2.4c-0.7-0.6-1.8-0.9-3.1-0.9c-1.2,0-2.1,0.2-2.7,0.7s-1,1.2-1,2.1
			c0,0.6,0.1,1.1,0.4,1.5c0.3,0.4,0.7,0.7,1.3,1s1.4,0.7,2.5,1.1c1.1,0.5,2.1,0.9,2.8,1.3c0.7,0.4,1.3,0.9,1.7,1.5
			c0.4,0.6,0.6,1.3,0.6,2.1c0,1.3-0.5,2.3-1.4,3c-0.9,0.8-2.2,1.1-3.9,1.1C257.4,143,256.1,142.6,255.1,141.8z"/>
		<path class="st0" d="M271.8,132.2h-2.7c-0.1,0-0.1,0-0.1,0.1v7.3c0,0.8,0.2,1.3,0.5,1.7c0.4,0.3,0.9,0.5,1.7,0.5h0.5
			c0.2,0,0.2,0.1,0.2,0.2v0.6c0,0.2-0.1,0.2-0.2,0.2l-0.7,0c-1.1,0-1.9-0.2-2.4-0.6c-0.5-0.4-0.8-1.2-0.8-2.3v-7.7
			c0-0.1,0-0.1-0.1-0.1h-1.4c-0.2,0-0.2-0.1-0.2-0.2v-0.6c0-0.2,0.1-0.2,0.2-0.2h1.4c0.1,0,0.1,0,0.1-0.1v-2.6
			c0-0.2,0.1-0.2,0.2-0.2h0.7c0.2,0,0.2,0.1,0.2,0.2v2.6c0,0.1,0,0.1,0.1,0.1h2.7c0.2,0,0.2,0.1,0.2,0.2v0.6
			C272.1,132.1,272,132.2,271.8,132.2z"/>
		<path class="st0" d="M281.9,132c0.7,0.7,1.1,1.7,1.1,2.8v7.7c0,0.2-0.1,0.2-0.2,0.2H282c-0.2,0-0.2-0.1-0.2-0.2v-1.1
			c0,0,0-0.1,0-0.1c0,0-0.1,0-0.1,0c-0.4,0.5-0.9,0.9-1.6,1.2c-0.6,0.3-1.4,0.4-2.1,0.4c-1.1,0-2-0.3-2.7-0.8
			c-0.7-0.5-1.1-1.4-1.1-2.5c0-1.1,0.4-2,1.3-2.7c0.8-0.7,2-1,3.5-1h2.8c0.1,0,0.1,0,0.1-0.1v-1c0-0.9-0.2-1.6-0.7-2.1
			c-0.5-0.5-1.2-0.8-2.2-0.8c-0.8,0-1.4,0.2-1.9,0.5c-0.5,0.3-0.8,0.8-1,1.3c0,0.2-0.1,0.2-0.3,0.2l-0.8-0.1c-0.2,0-0.2-0.1-0.2-0.2
			c0.1-0.8,0.6-1.5,1.4-2c0.8-0.5,1.7-0.8,2.9-0.8C280.2,130.9,281.2,131.3,281.9,132z M280.7,141.2c0.7-0.5,1.1-1.1,1.1-2v-2.1
			c0-0.1,0-0.1-0.1-0.1H279c-1.1,0-2,0.2-2.7,0.7c-0.7,0.5-1,1.1-1,1.9c0,0.8,0.3,1.3,0.8,1.7s1.2,0.6,2,0.6
			C279.1,141.9,280,141.7,280.7,141.2z"/>
		<path class="st0" d="M293.6,132.1c0.7,0.7,1.1,1.7,1.1,2.9v7.7c0,0.2-0.1,0.2-0.2,0.2h-0.8c-0.2,0-0.2-0.1-0.2-0.2v-7.4
			c0-0.9-0.3-1.7-0.8-2.2c-0.6-0.6-1.3-0.9-2.2-0.9c-0.9,0-1.7,0.3-2.2,0.8c-0.6,0.6-0.9,1.3-0.9,2.2v7.5c0,0.2-0.1,0.2-0.2,0.2
			h-0.8c-0.2,0-0.2-0.1-0.2-0.2v-11.2c0-0.2,0.1-0.2,0.2-0.2h0.8c0.2,0,0.2,0.1,0.2,0.2v1.1c0,0,0,0.1,0,0.1c0,0,0,0,0.1,0
			c0.3-0.5,0.8-0.9,1.3-1.2c0.6-0.3,1.2-0.4,1.9-0.4C291.9,131,292.9,131.3,293.6,132.1z"/>
		<path class="st0" d="M305.3,126.6h0.8c0.2,0,0.2,0.1,0.2,0.2v15.8c0,0.2-0.1,0.2-0.2,0.2h-0.8c-0.2,0-0.2-0.1-0.2-0.2v-1.1
			c0,0,0-0.1,0-0.1c0,0-0.1,0-0.1,0c-0.3,0.5-0.8,0.9-1.3,1.2c-0.5,0.3-1.2,0.4-1.8,0.4c-1.1,0-1.9-0.3-2.7-0.8s-1.2-1.3-1.5-2.2
			c-0.1-0.4-0.2-0.8-0.2-1.2c0-0.4,0-1,0-1.7c0-0.7,0-1.3,0-1.7c0-0.4,0.1-0.8,0.2-1.2c0.2-1,0.7-1.7,1.4-2.3
			c0.7-0.6,1.6-0.8,2.7-0.8c0.7,0,1.3,0.1,1.8,0.4c0.5,0.3,1,0.7,1.3,1.2c0,0,0,0.1,0.1,0.1c0,0,0,0,0-0.1v-5.7
			C305.1,126.7,305.2,126.6,305.3,126.6z M305,138.7c0-0.4,0.1-1,0.1-1.7c0-0.8,0-1.4-0.1-1.8s-0.1-0.7-0.2-1
			c-0.2-0.6-0.5-1.1-1-1.5c-0.5-0.4-1.1-0.6-1.8-0.6c-0.7,0-1.4,0.2-1.9,0.6c-0.5,0.4-0.9,0.9-1.1,1.5c-0.1,0.3-0.2,0.6-0.3,1
			c-0.1,0.4-0.1,1-0.1,1.8c0,0.8,0,1.4,0.1,1.8s0.1,0.7,0.2,1c0.2,0.6,0.5,1.2,1,1.6c0.5,0.4,1.2,0.6,1.9,0.6c0.7,0,1.3-0.2,1.8-0.6
			c0.5-0.4,0.8-0.9,1-1.6C304.9,139.4,305,139.1,305,138.7z"/>
		<path class="st0" d="M316.7,132c0.7,0.7,1.1,1.7,1.1,2.8v7.7c0,0.2-0.1,0.2-0.2,0.2h-0.8c-0.2,0-0.2-0.1-0.2-0.2v-1.1
			c0,0,0-0.1,0-0.1c0,0-0.1,0-0.1,0c-0.4,0.5-0.9,0.9-1.6,1.2c-0.6,0.3-1.4,0.4-2.1,0.4c-1.1,0-2-0.3-2.7-0.8
			c-0.7-0.5-1.1-1.4-1.1-2.5c0-1.1,0.4-2,1.3-2.7c0.8-0.7,2-1,3.5-1h2.8c0.1,0,0.1,0,0.1-0.1v-1c0-0.9-0.2-1.6-0.7-2.1
			c-0.5-0.5-1.2-0.8-2.2-0.8c-0.8,0-1.4,0.2-1.9,0.5c-0.5,0.3-0.8,0.8-1,1.3c0,0.2-0.1,0.2-0.3,0.2l-0.8-0.1c-0.2,0-0.2-0.1-0.2-0.2
			c0.1-0.8,0.6-1.5,1.4-2c0.8-0.5,1.7-0.8,2.9-0.8C315,130.9,316,131.3,316.7,132z M315.5,141.2c0.7-0.5,1.1-1.1,1.1-2v-2.1
			c0-0.1,0-0.1-0.1-0.1h-2.7c-1.1,0-2,0.2-2.7,0.7c-0.7,0.5-1,1.1-1,1.9c0,0.8,0.3,1.3,0.8,1.7s1.2,0.6,2,0.6
			C313.9,141.9,314.8,141.7,315.5,141.2z"/>
		<path class="st0" d="M326.7,131.3c0.1,0,0.2,0.1,0.1,0.3l-0.2,0.7c0,0.2-0.1,0.2-0.3,0.1c-0.3-0.1-0.7-0.2-1.2-0.2
			c-0.9,0-1.6,0.3-2.1,1c-0.6,0.6-0.8,1.4-0.8,2.4v6.9c0,0.2-0.1,0.2-0.2,0.2h-0.8c-0.2,0-0.2-0.1-0.2-0.2v-11.2
			c0-0.2,0.1-0.2,0.2-0.2h0.8c0.2,0,0.2,0.1,0.2,0.2v1.6c0,0,0,0.1,0,0.1c0,0,0,0,0.1-0.1c0.3-0.6,0.7-1.1,1.3-1.4
			c0.5-0.3,1.1-0.5,1.8-0.5C325.8,131,326.3,131.1,326.7,131.3z"/>
		<path class="st0" d="M336.1,126.6h0.8c0.2,0,0.2,0.1,0.2,0.2v15.8c0,0.2-0.1,0.2-0.2,0.2h-0.8c-0.2,0-0.2-0.1-0.2-0.2v-1.1
			c0,0,0-0.1,0-0.1c0,0-0.1,0-0.1,0c-0.3,0.5-0.8,0.9-1.3,1.2c-0.5,0.3-1.2,0.4-1.8,0.4c-1.1,0-1.9-0.3-2.7-0.8s-1.2-1.3-1.5-2.2
			c-0.1-0.4-0.2-0.8-0.2-1.2c0-0.4,0-1,0-1.7c0-0.7,0-1.3,0-1.7c0-0.4,0.1-0.8,0.2-1.2c0.2-1,0.7-1.7,1.4-2.3
			c0.7-0.6,1.6-0.8,2.7-0.8c0.7,0,1.3,0.1,1.8,0.4c0.5,0.3,1,0.7,1.3,1.2c0,0,0,0.1,0.1,0.1c0,0,0,0,0-0.1v-5.7
			C335.9,126.7,335.9,126.6,336.1,126.6z M335.8,138.7c0-0.4,0.1-1,0.1-1.7c0-0.8,0-1.4-0.1-1.8s-0.1-0.7-0.2-1
			c-0.2-0.6-0.5-1.1-1-1.5c-0.5-0.4-1.1-0.6-1.8-0.6c-0.7,0-1.4,0.2-1.9,0.6c-0.5,0.4-0.9,0.9-1.1,1.5c-0.1,0.3-0.2,0.6-0.3,1
			c-0.1,0.4-0.1,1-0.1,1.8c0,0.8,0,1.4,0.1,1.8s0.1,0.7,0.2,1c0.2,0.6,0.5,1.2,1,1.6c0.5,0.4,1.2,0.6,1.9,0.6c0.7,0,1.3-0.2,1.8-0.6
			c0.5-0.4,0.8-0.9,1-1.6C335.7,139.4,335.7,139.1,335.8,138.7z"/>
		<path class="st0" d="M342,142.5c-0.6-0.3-1.1-0.6-1.5-1.1c-0.4-0.5-0.5-1-0.5-1.5v-0.3c0-0.2,0.1-0.2,0.2-0.2h0.7
			c0.2,0,0.2,0.1,0.2,0.2v0.3c0,0.6,0.3,1.1,0.9,1.5c0.6,0.4,1.3,0.6,2.2,0.6c0.9,0,1.6-0.2,2.1-0.6c0.5-0.4,0.8-0.9,0.8-1.6
			c0-0.4-0.1-0.8-0.4-1.1s-0.6-0.5-1-0.6c-0.4-0.1-0.9-0.3-1.7-0.6c-0.9-0.3-1.6-0.5-2.1-0.7c-0.5-0.2-1-0.6-1.3-1s-0.5-1-0.5-1.6
			c0-0.9,0.4-1.7,1.1-2.3c0.8-0.6,1.7-0.8,3-0.8c0.8,0,1.5,0.1,2.2,0.4c0.6,0.3,1.1,0.6,1.5,1.1s0.5,1,0.5,1.6v0.1
			c0,0.2-0.1,0.2-0.2,0.2h-0.7c-0.2,0-0.2-0.1-0.2-0.2v-0.1c0-0.6-0.3-1.1-0.8-1.5c-0.5-0.4-1.3-0.6-2.2-0.6c-0.9,0-1.6,0.2-2.1,0.5
			c-0.5,0.4-0.8,0.9-0.8,1.5c0,0.6,0.2,1,0.7,1.3s1.2,0.6,2.3,0.9c0.9,0.3,1.6,0.5,2.1,0.7c0.5,0.2,1,0.6,1.4,1
			c0.4,0.4,0.6,1,0.6,1.7c0,1-0.4,1.8-1.1,2.4c-0.8,0.6-1.8,0.9-3,0.9C343.4,142.9,342.6,142.8,342,142.5z"/>
		<path class="st0" d="M365.5,127.7h-8.8c-0.1,0-0.1,0-0.1,0.1v6.3c0,0.1,0,0.1,0.1,0.1h6.2c0.2,0,0.2,0.1,0.2,0.2v0.6
			c0,0.2-0.1,0.2-0.2,0.2h-6.2c-0.1,0-0.1,0-0.1,0.1v6.3c0,0.1,0,0.1,0.1,0.1h8.8c0.2,0,0.2,0.1,0.2,0.2v0.6c0,0.2-0.1,0.2-0.2,0.2
			h-9.9c-0.2,0-0.2-0.1-0.2-0.2v-15.8c0-0.2,0.1-0.2,0.2-0.2h9.9c0.2,0,0.2,0.1,0.2,0.2v0.6C365.8,127.6,365.7,127.7,365.5,127.7z"
			/>
		<path class="st0" d="M367.4,142.7c0-0.1,0-0.1,0-0.2l3.9-5.5c0,0,0-0.1,0-0.1l-3.9-5.5c0,0,0-0.1,0-0.1c0,0,0-0.1,0-0.1
			c0,0,0.1,0,0.1,0h0.8c0.1,0,0.2,0,0.3,0.1l3.3,4.7c0,0,0,0,0.1,0c0,0,0.1,0,0.1,0l3.2-4.7c0.1-0.1,0.2-0.1,0.3-0.1h0.9
			c0.1,0,0.2,0,0.2,0.1c0,0.1,0,0.1,0,0.2l-3.9,5.5c0,0,0,0.1,0,0.1l3.9,5.5c0,0,0,0.1,0,0.1c0,0,0,0.1,0,0.1c0,0-0.1,0-0.1,0h-0.8
			c-0.1,0-0.2,0-0.3-0.1l-3.2-4.7c0,0,0,0-0.1,0s-0.1,0-0.1,0l-3.3,4.7c-0.1,0.1-0.2,0.1-0.3,0.1h-0.9
			C367.5,142.8,367.4,142.8,367.4,142.7z"/>
		<path class="st0" d="M379.9,142.1c-0.8-0.6-1.3-1.3-1.5-2.3c-0.2-0.7-0.3-1.7-0.3-2.9c0-1.1,0.1-2.1,0.3-2.9
			c0.2-0.9,0.8-1.7,1.5-2.3c0.8-0.6,1.7-0.9,2.8-0.9s2,0.3,2.8,0.8c0.8,0.6,1.3,1.3,1.5,2.1c0.1,0.2,0.1,0.4,0.1,0.6v0
			c0,0.1-0.1,0.2-0.2,0.2l-0.7,0.1h0c-0.1,0-0.2-0.1-0.2-0.2l-0.1-0.3c-0.1-0.6-0.5-1.2-1.1-1.6c-0.6-0.4-1.3-0.7-2.1-0.7
			c-0.9,0-1.6,0.2-2.1,0.7c-0.6,0.4-0.9,1-1.1,1.8c-0.1,0.6-0.2,1.4-0.2,2.5c0,1.1,0.1,1.9,0.2,2.5c0.2,0.8,0.5,1.4,1.1,1.8
			c0.6,0.4,1.3,0.7,2.1,0.7c0.8,0,1.5-0.2,2.1-0.7c0.6-0.4,1-1,1.1-1.7l0-0.1c0-0.2,0.1-0.2,0.3-0.2l0.7,0.1c0.2,0,0.2,0.1,0.2,0.3
			L387,140c-0.2,0.9-0.7,1.6-1.5,2.1c-0.8,0.5-1.7,0.8-2.8,0.8S380.7,142.7,379.9,142.1z"/>
		<path class="st0" d="M397.3,132.1c0.7,0.7,1.1,1.7,1.1,2.9v7.7c0,0.2-0.1,0.2-0.2,0.2h-0.8c-0.2,0-0.2-0.1-0.2-0.2v-7.4
			c0-0.9-0.3-1.7-0.8-2.2s-1.3-0.9-2.2-0.9c-0.9,0-1.7,0.3-2.2,0.8c-0.6,0.6-0.9,1.3-0.9,2.2v7.5c0,0.2-0.1,0.2-0.2,0.2h-0.8
			c-0.2,0-0.2-0.1-0.2-0.2v-15.8c0-0.2,0.1-0.2,0.2-0.2h0.8c0.2,0,0.2,0.1,0.2,0.2v5.7c0,0,0,0.1,0,0.1s0,0,0.1,0
			c0.3-0.5,0.8-0.9,1.3-1.2c0.6-0.3,1.2-0.4,1.9-0.4C395.6,131,396.6,131.3,397.3,132.1z"/>
		<path class="st0" d="M408.7,132c0.7,0.7,1.1,1.7,1.1,2.8v7.7c0,0.2-0.1,0.2-0.2,0.2h-0.8c-0.2,0-0.2-0.1-0.2-0.2v-1.1
			c0,0,0-0.1,0-0.1c0,0-0.1,0-0.1,0c-0.4,0.5-0.9,0.9-1.6,1.2c-0.6,0.3-1.4,0.4-2.1,0.4c-1.1,0-2-0.3-2.7-0.8
			c-0.7-0.5-1.1-1.4-1.1-2.5c0-1.1,0.4-2,1.3-2.7c0.8-0.7,2-1,3.5-1h2.8c0.1,0,0.1,0,0.1-0.1v-1c0-0.9-0.2-1.6-0.7-2.1
			c-0.5-0.5-1.2-0.8-2.2-0.8c-0.8,0-1.4,0.2-1.9,0.5c-0.5,0.3-0.8,0.8-1,1.3c0,0.2-0.1,0.2-0.3,0.2l-0.8-0.1c-0.2,0-0.2-0.1-0.2-0.2
			c0.1-0.8,0.6-1.5,1.4-2c0.8-0.5,1.7-0.8,2.9-0.8C406.9,130.9,408,131.3,408.7,132z M407.4,141.2c0.7-0.5,1.1-1.1,1.1-2v-2.1
			c0-0.1,0-0.1-0.1-0.1h-2.7c-1.1,0-2,0.2-2.7,0.7s-1,1.1-1,1.9c0,0.8,0.3,1.3,0.8,1.7s1.2,0.6,2,0.6
			C405.9,141.9,406.7,141.7,407.4,141.2z"/>
		<path class="st0" d="M420.3,132.1c0.7,0.7,1.1,1.7,1.1,2.9v7.7c0,0.2-0.1,0.2-0.2,0.2h-0.8c-0.2,0-0.2-0.1-0.2-0.2v-7.4
			c0-0.9-0.3-1.7-0.8-2.2c-0.6-0.6-1.3-0.9-2.2-0.9c-0.9,0-1.7,0.3-2.2,0.8c-0.6,0.6-0.9,1.3-0.9,2.2v7.5c0,0.2-0.1,0.2-0.2,0.2
			h-0.8c-0.2,0-0.2-0.1-0.2-0.2v-11.2c0-0.2,0.1-0.2,0.2-0.2h0.8c0.2,0,0.2,0.1,0.2,0.2v1.1c0,0,0,0.1,0,0.1c0,0,0,0,0.1,0
			c0.3-0.5,0.8-0.9,1.3-1.2s1.2-0.4,1.9-0.4C418.6,131,419.6,131.3,420.3,132.1z"/>
		<path class="st0" d="M432.2,131.1h0.8c0.2,0,0.2,0.1,0.2,0.2v11.2c0,1.7-0.5,3-1.6,3.8c-1.1,0.8-2.5,1.1-4.5,1.1
			c-0.2,0-0.2-0.1-0.2-0.3l0-0.7c0-0.2,0.1-0.2,0.2-0.2c1.7,0.1,2.9-0.2,3.6-0.8c0.8-0.6,1.1-1.6,1.1-2.9v-1.2c0,0,0-0.1,0-0.1
			c0,0,0,0-0.1,0c-0.7,1.1-1.8,1.6-3.2,1.6c-1,0-1.9-0.3-2.6-0.8c-0.8-0.5-1.3-1.3-1.5-2.3c-0.2-0.6-0.3-1.6-0.3-2.9
			c0-1.4,0.1-2.4,0.3-3c0.2-0.9,0.7-1.7,1.5-2.2c0.7-0.6,1.6-0.8,2.6-0.8c1.4,0,2.5,0.5,3.2,1.6c0,0,0,0,0.1,0c0,0,0,0,0-0.1v-1.1
			C432,131.2,432,131.1,432.2,131.1z M431.9,138.5c0-0.3,0-0.9,0-1.6c0-0.7,0-1.2,0-1.6s0-0.6-0.1-0.9c-0.1-0.7-0.5-1.3-1-1.8
			s-1.2-0.7-2-0.7s-1.5,0.2-2,0.7s-0.9,1.1-1.1,1.8c-0.1,0.5-0.2,1.3-0.2,2.5c0,1.1,0.1,2,0.2,2.5c0.2,0.7,0.5,1.3,1.1,1.8
			s1.2,0.7,2.1,0.7c0.8,0,1.5-0.2,2-0.7c0.5-0.5,0.8-1.1,1-1.8C431.9,139.2,431.9,138.9,431.9,138.5z"/>
		<path class="st0" d="M442.7,141.4c0.5-0.3,0.9-0.8,1.2-1.4c0.1-0.1,0.2-0.2,0.3-0.1l0.6,0.3c0.1,0.1,0.2,0.2,0.1,0.3
			c-0.3,0.8-0.9,1.4-1.6,1.8c-0.7,0.4-1.6,0.7-2.6,0.7c-1.1,0-2-0.3-2.8-0.8c-0.8-0.5-1.3-1.2-1.6-2.2c-0.1-0.4-0.2-0.8-0.3-1.3
			c0-0.5-0.1-1.1-0.1-1.8c0-0.8,0-1.3,0-1.7c0-0.4,0.1-0.7,0.2-1.1c0.2-1,0.8-1.8,1.5-2.3c0.8-0.6,1.7-0.9,2.8-0.9
			c1.3,0,2.3,0.3,3,1s1.2,1.6,1.4,2.7c0,0.3,0.1,0.6,0.1,1c0,0.4,0,0.9,0,1.5c0,0.2-0.1,0.2-0.2,0.2h-7.6c-0.1,0-0.1,0-0.1,0.1
			c0,1,0,1.6,0.1,2c0.2,0.8,0.6,1.4,1.1,1.8s1.3,0.7,2.3,0.7C441.5,141.9,442.1,141.7,442.7,141.4z M437.3,136.2
			C437.3,136.3,437.3,136.3,437.3,136.2l6.6,0.1c0.1,0,0.1,0,0.1-0.1c0-0.8,0-1.4-0.1-1.7c-0.2-0.7-0.5-1.3-1.1-1.8
			c-0.6-0.5-1.3-0.7-2.1-0.7c-0.8,0-1.5,0.2-2.1,0.7c-0.6,0.4-0.9,1-1.1,1.8C437.4,134.7,437.3,135.3,437.3,136.2z"/>
		<path class="st0" d="M450.5,125.8c0.4,0.2,0.7,0.5,1,0.9s0.4,0.8,0.4,1.3s-0.1,0.9-0.4,1.3c-0.2,0.4-0.6,0.7-1,0.9
			c-0.4,0.2-0.8,0.3-1.3,0.3c-0.5,0-0.9-0.1-1.3-0.3c-0.4-0.2-0.7-0.5-1-0.9c-0.2-0.4-0.4-0.8-0.4-1.3s0.1-0.9,0.4-1.3
			s0.6-0.7,1-0.9s0.8-0.4,1.3-0.4C449.7,125.4,450.1,125.5,450.5,125.8z M450.3,129.9c0.3-0.2,0.6-0.5,0.8-0.8s0.3-0.7,0.3-1.1
			s-0.1-0.8-0.3-1.1s-0.5-0.6-0.8-0.8s-0.7-0.3-1.1-0.3c-0.4,0-0.8,0.1-1.1,0.3c-0.3,0.2-0.6,0.5-0.8,0.8s-0.3,0.7-0.3,1.1
			s0.1,0.8,0.3,1.1s0.5,0.6,0.8,0.8c0.3,0.2,0.7,0.3,1.1,0.3C449.6,130.2,450,130.1,450.3,129.9z M449.9,127.9
			c-0.1,0.1-0.2,0.2-0.3,0.2c0,0,0,0,0,0.1l0.4,0.9l0,0.1c0,0.1,0,0.1-0.1,0.1h-0.1c-0.1,0-0.1,0-0.1-0.1l-0.4-0.9c0,0,0,0-0.1,0
			h-0.3c0,0-0.1,0-0.1,0.1v0.8c0,0.1,0,0.1-0.1,0.1h-0.1c-0.1,0-0.1,0-0.1-0.1V127c0-0.1,0-0.1,0.1-0.1h0.7c0.2,0,0.4,0.1,0.5,0.2
			c0.1,0.1,0.2,0.3,0.2,0.5C450,127.7,450,127.8,449.9,127.9z M448.9,127.2v0.7c0,0,0,0.1,0.1,0.1h0.4c0.1,0,0.2,0,0.3-0.1
			c0.1-0.1,0.1-0.2,0.1-0.3c0-0.1,0-0.2-0.1-0.3c-0.1-0.1-0.2-0.1-0.3-0.1L448.9,127.2C448.9,127.2,448.9,127.2,448.9,127.2z"/>
	</g>
</g>
</svg>
