<?xml version="1.0" encoding="utf-8"?>
<!-- Generator: Adobe Illustrator 26.0.2, SVG Export Plug-In . SVG Version: 6.00 Build 0)  -->
<svg version="1.1" id="Layer_1" xmlns="http://www.w3.org/2000/svg" xmlns:xlink="http://www.w3.org/1999/xlink" x="0px" y="0px"
	 viewBox="0 0 288 288" style="enable-background:new 0 0 288 288;" xml:space="preserve">
<style type="text/css">
	.st0{fill:#FFFFFF;}
	.st1{fill:url(#SVGID_1_);}
	.st2{fill:url(#SVGID_00000066513732944332534800000005831553047686568613_);}
	.st3{fill:#929497;}
	.st4{fill:none;stroke:#929497;stroke-width:0.6276;stroke-miterlimit:10;}
	.st5{fill:url(#SVGID_00000155835465319048569840000008745969452707781769_);}
	.st6{fill:#EF4137;}
	.st7{fill:none;stroke:#EF4137;stroke-width:0.6276;stroke-miterlimit:10;}
	.st8{fill:#3A53A4;}
	
		.st9{fill:none;stroke:url(#SVGID_00000084505440444778240490000005542972866308959140_);stroke-width:0.6276;stroke-miterlimit:10;}
</style>
<circle class="st0" cx="142.8" cy="144.3" r="133.1"/>
<linearGradient id="SVGID_1_" gradientUnits="userSpaceOnUse" x1="117.9586" y1="-38.7288" x2="71.8301" y2="22.4181" gradientTransform="matrix(1 0 0 1 -12.82 195.17)">
	<stop  offset="0" style="stop-color:#55A4DB"/>
	<stop  offset="1" style="stop-color:#3A53A4"/>
</linearGradient>
<path class="st1" d="M90.1,166.7l12.9-4.4l-61.8-35.9c0,0-13.5,55.1,26.9,95.5c16.6,16.6,34.6,25.7,51.5,30.1
	c-3.7-4.7-16.9-21.8-24.6-39.9C86.1,190.8,90.1,166.7,90.1,166.7z"/>
<linearGradient id="SVGID_00000037650955449309603790000010899514771072643496_" gradientUnits="userSpaceOnUse" x1="-1582.8286" y1="-512.1697" x2="-1628.9006" y2="-450.9474" gradientTransform="matrix(-0.57 0.82 -0.82 -0.57 -1168.0701 1104.74)">
	<stop  offset="0" style="stop-color:#F2F2F2"/>
	<stop  offset="1" style="stop-color:#929497"/>
</linearGradient>
<path style="fill:url(#SVGID_00000037650955449309603790000010899514771072643496_);" d="M154.9,83l-3.8,13.1L216,66.1
	c0,0-37.4-42.7-93.7-32.7C99.2,37.5,81.5,47,68.2,58.3c6-0.4,27.6-1.4,46.8,2.7C137.6,65.9,154.9,83,154.9,83z"/>
<path class="st3" d="M41.9,104.2c1.1-2.2,2.3-4.2,3.6-6.2C72,60.1,147.7,76.1,154.9,82.4c0,0-17.4-16.5-39.9-21.3
	c-19.2-4.1-40.9-3.1-46.8-2.7c-7.1,6.1-13.4,13-18.8,20.7c-6.1,8.6-10.9,18.2-14.1,28.2c-6.7,21.9-3.8,42.8-3.8,42.8
	S31.9,123.2,41.9,104.2z"/>
<path class="st4" d="M214.9,65.9L152.2,95l3.4-11.8l0.1-0.4l-0.3-0.3c-4.8-4.1-35.9-11.9-64.9-8.3c-9.7,1.2-18.3,3.6-25.6,7.1
	c-8.4,4-15.1,9.5-19.8,16.3c-1.4,2-2.6,4.1-3.7,6.3c-6.3,11.9-8.8,27.1-9.8,36.7c-0.2-8.1,0.5-20.5,4.4-33.2c3.2-10,7.9-19.5,14-28
	c11.8-16.9,34-38.6,72.5-45.4c12.6-2.3,25.6-1.9,38.1,0.9c10.3,2.4,20.2,6.3,29.4,11.6C199.1,51.8,207.5,58.3,214.9,65.9"/>
<linearGradient id="SVGID_00000023243704707023562280000009572240783127756475_" gradientUnits="userSpaceOnUse" x1="-1368.6106" y1="1222.3097" x2="-1415.1157" y2="1282.8729" gradientTransform="matrix(-0.48 -0.88 0.88 -0.48 -1553.4 -449.93)">
	<stop  offset="0" style="stop-color:#F69320"/>
	<stop  offset="1" style="stop-color:#F15B2A"/>
</linearGradient>
<path style="fill:url(#SVGID_00000023243704707023562280000009572240783127756475_);" d="M191.2,175.7l-10-9.2l-1.9,71.4
	c0,0,54.8-14.5,70.9-69.3c6.6-22.5,6-42.6,1.8-59.6c-2.3,5.5-11.1,25.4-23.3,40.7C214.3,167.8,191.2,175.7,191.2,175.7z"/>
<path class="st6" d="M222.6,65.1c1.5,1.9,2.8,3.9,3.9,6c22.1,40.6-25.8,101.2-34.7,104.9c0,0,22.5-8.2,36.9-26.2
	c12.2-15.4,21-35.2,23.3-40.7c-2.3-9.1-5.7-17.8-10.2-26c-5-9.3-11.4-17.8-19-25.2c-16.6-15.8-36.6-22.4-36.6-22.4
	S210.1,47.6,222.6,65.1z"/>
<path class="st7" d="M179.9,237l1.9-69.2l9,8.3l0.3,0.3l0.4-0.2c5.8-2.5,26.7-26.8,36.3-54.5c3.2-9.2,4.9-18,5.1-26
	c0.1-9.3-1.8-17.7-5.8-25c-1.2-2.1-2.5-4.2-4-6.1c-7.9-11-20.3-19.9-28.5-25.1c7.3,3.5,18.2,9.6,27.8,18.7
	c7.5,7.3,13.9,15.8,18.9,25c9.9,18.2,19.4,47.7,8.4,85.1c-3.6,12.3-9.6,23.8-17.8,33.7c-6.7,8.2-14.6,15.3-23.5,21.1
	C199.6,229.2,190,233.8,179.9,237 M179.3,237.9c0,0,54.8-14.5,70.9-69.3c10.5-35.6,2.8-65-8.4-85.6c-5-9.3-11.4-17.8-19-25.2
	c-16.6-15.8-36.6-22.4-36.6-22.4s23.9,12.3,36.4,29.7c1.5,1.9,2.8,3.9,3.9,6c22.1,40.6-26.4,100.9-35.3,104.6l-10-9.2L179.3,237.9z"
	/>
<path class="st8" d="M172.3,247.2c-2.4,0.4-4.8,0.6-7.2,0.6c-46.2,0-75.9-71.5-75-81.1c0,0-4.1,24.1,4.9,45.3
	c7.6,18.1,20.9,35.3,24.6,39.9c9.1,2.3,18.4,3.5,27.7,3.5c10.6,0.1,21.1-1.5,31.2-4.6c21.8-7,37.2-21.4,37.2-21.4
	S193.6,244.5,172.3,247.2z"/>
<linearGradient id="SVGID_00000116218479060032040100000002060436180210675348_" gradientUnits="userSpaceOnUse" x1="49.0603" y1="83.6748" x2="230.3643" y2="73.6898" gradientTransform="matrix(1 0 0 -1 -12.61 271.41)">
	<stop  offset="0" style="stop-color:#2584C6"/>
	<stop  offset="1" style="stop-color:#2584C6"/>
</linearGradient>
<path style="fill:none;stroke:url(#SVGID_00000116218479060032040100000002060436180210675348_);stroke-width:0.6276;stroke-miterlimit:10;" d="
	M41.3,126.4c0,0-13.5,55.1,26.9,95.5c26.2,26.2,55.7,33.6,79.2,33.6c10.6,0.1,21.1-1.5,31.2-4.6c21.8-7,37.2-21.4,37.2-21.4
	s-22.2,15.1-43.5,17.7c-2.4,0.4-4.8,0.6-7.2,0.5c-46.2,0-75.9-71.5-75-81.1l12.9-4.4L41.3,126.4z"/>
</svg>
